<?xml version="1.0" encoding="utf-8"?>
<!-- Generator: Adobe Illustrator 24.0.0, SVG Export Plug-In . SVG Version: 6.00 Build 0)  -->
<svg version="1.1" id="Layer_1" xmlns="http://www.w3.org/2000/svg" xmlns:xlink="http://www.w3.org/1999/xlink" x="0px" y="0px"
	 viewBox="0 0 153.1 153.1" style="enable-background:new 0 0 153.1 153.1;" xml:space="preserve">
<style type="text/css">
	.st0{fill:#FFFFFF;stroke:#000000;stroke-miterlimit:10;}
</style>
<g>
	<rect x="121" y="12.1" class="st0" width="20.6" height="20.6"/>
	<path class="st0" d="M96.3,90.5c-1.3,13.8-7.8,20.6-19.4,20.6c-15,0-22.5-11.3-22.5-33.8c0-10.8,1.9-19.1,5.8-24.7
		s9.4-8.5,16.7-8.5c11.3,0,17.8,6.2,19.4,18.4h37.4c-1.9-15.1-7.9-27-18.1-35.5c-10.4-8.7-23.4-13-39.1-13
		c-17.7,0-32.1,5.8-43.3,17.3C22,42.8,16.4,58.3,16.4,77.7c0,18.3,5,33.1,14.9,44.3v-0.2h20.6v14.9c7.3,3,15.5,4.5,24.6,4.5
		c16.1,0,29.4-4.6,39.9-13.7c10.6-9.1,16.5-21.5,17.6-37.1L96.3,90.5L96.3,90.5z"/>
	<rect x="10.8" y="121.8" class="st0" width="20.6" height="20.6"/>
</g>
</svg>
